<?xml version="1.0" encoding="UTF-8" standalone="no"?>
<!-- Created with Inkscape (http://www.inkscape.org/) -->

<svg
   width="100.40937mm"
   height="106.19908mm"
   viewBox="0 0 100.40937 106.19908"
   version="1.1"
   id="svg1"
   xml:space="preserve"
   xmlns:xlink="http://www.w3.org/1999/xlink"
   xmlns="http://www.w3.org/2000/svg"
   xmlns:svg="http://www.w3.org/2000/svg"><defs
     id="defs1" /><g
     id="layer4"
     style="display:inline"
     transform="translate(0,-0.5953129)"><g
       id="g31"
       style="display:inline"
       transform="translate(-8.9958332,-3.3072912)"><g
         id="g30"><path
           style="display:inline;fill:#ffa0bb;fill-opacity:1;stroke-width:5.79437"
           d="M 15.10741,33.67596 V 9.6818383 H 38.496875 V 27.847395 h -14.61823 v 5.828565 z"
           id="path29" /><path
           style="display:inline;fill:#ffa0bb;fill-opacity:1;stroke-width:5.79437"
           d="M 24.040894,54.629891 26.052096,84.862576 59.398955,84.60052 V 54.81698 Z"
           id="path30" /><rect
           style="display:inline;fill:#945d6d;fill-opacity:1;stroke-width:5.79437"
           id="rect30"
           width="5.472343"
           height="4.677217"
           x="23.339312"
           y="43.872292" /><path
           style="display:inline;fill:#c87d93;fill-opacity:1;stroke-width:5.79437"
           d="m 24.040894,33.67596 26.296085,-3.84419 h 9.061976 V 48.549509 H 32.553428 l -3.741774,-4.677217 -4.794147,-4.022407 z"
           id="path22" /><path
           style="display:inline;fill:#000000;stroke-width:5.79437"
           d="m 13.37684,110.10168 c 0,0 0,-7.29646 0,-12.628485 0,-7.76418 5.472343,-9.027028 10.196332,-13.751018 3.835317,0 6.027088,0.878343 6.027088,0.878343 h 29.798695 v 25.50116 z"
           id="path25" /><path
           style="display:inline;fill:#ffa0bb;stroke-width:5.79437"
           d="M 59.398955,98.424999 H 19.314583 v 5.596301 h 40.084372 z"
           id="path23" /><path
           style="display:inline;fill:#cc8096;stroke-width:5.79437"
           d="M 59.398955,94.853955 H 20.416051 l 4.186109,-4.186111 h 34.796795 z"
           id="path24" /><path
           style="display:inline;fill:#000000;stroke-width:5.79437"
           d="M 17.866968,39.849885 H 8.9958332 V 3.9026041 H 44.383854 V 14.419791 h 6.085416 v 9.06198 h 8.929685 v 6.349999 h -9.061976 v 9.789584 H 35.321875 V 33.67596 H 24.040894 V 27.847395 H 38.496875 V 9.855729 H 19.831399 c -2.526671,0 -4.723989,2.108544 -4.723989,4.269465 V 33.67596 h 8.933484 z"
           id="path27" /><rect
           style="display:inline;fill:#000000;stroke-width:5.79437"
           id="rect27"
           width="5.2916665"
           height="5.2916665"
           x="18.586979"
           y="13.394531" /><rect
           style="display:inline;fill:#000000;stroke-width:5.79437"
           id="rect27-1"
           width="5.2916665"
           height="5.2916665"
           x="38.765251"
           y="74.116402" /><rect
           style="display:inline;fill:#000000;stroke-width:5.79437"
           id="rect27-1-2"
           width="5.2916665"
           height="5.2916665"
           x="49.708595"
           y="74.116402" /><rect
           style="display:inline;fill:#000000;stroke-width:5.79437"
           id="rect27-8"
           width="5.2916665"
           height="5.2916665"
           x="18.586979"
           y="22.621874" /><path
           style="display:inline;fill:#000000;stroke-width:5.79437"
           d="M 59.398955,48.549509 H 32.553428 v -8.699624 h -14.68646 v 4.022407 h 10.944686 v 4.677217 H 17.866968 v 6.267471 h 41.531987 z"
           id="path28" /><path
           style="fill:#000000;stroke-width:5.79437"
           d="M 29.60026,84.60052 V 73.993567 c 0,-8.325445 -5.559366,-8.793167 -5.559366,-19.363676 0,-10.570509 0,-20.953931 0,-20.953931 l -6.173926,6.173925 c 0,0 0,18.147601 0,25.444061 0,7.296456 5.706204,7.296451 5.706204,18.428231 3.236004,1.868308 6.027088,0.878343 6.027088,0.878343 z"
           id="path26" /></g><use
         x="0"
         y="0"
         xlink:href="#g30"
         transform="matrix(-1,0,0,1,118.40104,0)"
         id="use31"
         style="display:inline" /></g></g></svg>
