<?xml version="1.0" encoding="UTF-8" standalone="no"?>
<!-- Created with Inkscape (http://www.inkscape.org/) -->

<svg
   width="106.50811mm"
   height="106.38186mm"
   viewBox="0 0 106.50811 106.38186"
   version="1.1"
   id="svg1"
   xml:space="preserve"
   xmlns="http://www.w3.org/2000/svg"
   xmlns:svg="http://www.w3.org/2000/svg"><defs
     id="defs1" /><g
     id="layer4"
     style="display:inline"
     transform="translate(-3.0427081,-3.0894802)"><g
       id="g69"
       style="display:inline"><g
         id="g68"
         style="fill:#ffffff"><rect
           style="display:inline;fill:#ffffff;fill-opacity:1;stroke:none;stroke-width:5.79437"
           id="rect69"
           width="37.179371"
           height="15.285823"
           x="50.794571"
           y="41.346592" /><rect
           style="display:inline;fill:#ffffff;fill-opacity:1;stroke:none;stroke-width:5.79437"
           id="rect68"
           width="37.179367"
           height="15.041636"
           x="50.794571"
           y="20.505209" /><rect
           style="display:inline;fill:#949494;fill-opacity:1;stroke:none;stroke-width:5.79437"
           id="rect70"
           width="4.7679272"
           height="20.24618"
           x="50.794571"
           y="83.051872" /><path
           style="display:inline;fill:#949494;fill-opacity:1;stroke:none;stroke-width:5.79437"
           d="m 93.733804,63.268486 c -0.109596,8.012285 -13.631203,19.399575 -13.631203,29.714573 0,10.315001 0,13.974751 0,13.974751 0,0 25.929159,-0.59336 25.929159,-19.134126 0,-18.540761 -8.588627,-24.555198 -12.297956,-24.555198 z"
           id="path70" /><path
           style="fill:#ffffff;fill-opacity:1;stroke:none;stroke-width:5.79437"
           d="m 80.102601,103.29806 c 0,-16.021203 10.751266,-35.333455 10.751266,-40.99955 -4.07054,0 -40.059297,0 -40.059297,0 0,16.944195 -3.575949,22.817945 0,20.753369 3.57595,-2.064575 7.64527,-5.572421 7.64527,20.246181 17.627865,0 21.662761,0 21.662761,0 z"
           id="path71" /><rect
           style="fill:#ffffff;fill-opacity:1;stroke:none;stroke-width:5.79437"
           id="rect71"
           width="15.014714"
           height="37.681396"
           x="29.699476"
           y="65.616661" /><rect
           style="fill:#949494;fill-opacity:1;stroke:none;stroke-width:5.79437"
           id="rect72"
           width="16.00729"
           height="37.6814"
           x="7.5406246"
           y="65.616661" /></g><g
         id="g70"><rect
           style="display:inline;fill:#000000;fill-opacity:1;stroke:none;stroke-width:5.8241"
           id="rect48"
           width="59.655514"
           height="17.415728"
           x="39.166359"
           y="3.0894804"
           rx="0"
           ry="0" /><rect
           style="display:inline;fill:#ffffff;fill-opacity:1;stroke:none;stroke-width:5.79437"
           id="rect73"
           width="47.782619"
           height="5.5139284"
           x="45.076675"
           y="9.0738001"
           ry="0" /><path
           style="display:inline;fill:#000000;fill-opacity:1;stroke:none;stroke-width:5.79437"
           d="M 44.71458,59.531247 H 14.353644 c -6.356157,0 -11.310936,3.737239 -11.310936,12.170832 v 27.781248 c 0,5.423963 4.4979153,9.988023 11.310936,9.988023 h 68.912605 c 15.576053,0 25.616431,-7.55312 26.271241,-29.434898 0.43103,-14.403605 -9.696861,-23.404041 -15.803686,-23.404041 v 6.636075 c 0,0 9.472986,2.974641 9.472986,19.281508 0,18.267576 -14.945125,20.748066 -19.940541,20.748066 h -69.45312 c -3.307291,0 -4.8094874,-3.22901 -4.8094874,-4.866039 V 72.032809 c 0,-3.780277 2.2411494,-6.416146 5.0854194,-6.416146 h 9.458854 21.166665 z"
           id="path49" /><rect
           style="fill:#000000;fill-opacity:1;stroke:none;stroke-width:5.79437"
           id="rect49"
           width="6.08038"
           height="82.792854"
           x="44.714191"
           y="20.505209" /><rect
           style="fill:#000000;fill-opacity:1;stroke:none;stroke-width:5.79437"
           id="rect50"
           width="5.7598472"
           height="36.127209"
           x="87.973946"
           y="20.505207" /><rect
           style="fill:#000000;fill-opacity:1;stroke:none;stroke-width:7.10992"
           id="rect51"
           width="49.0196"
           height="5.8540645"
           x="44.714191"
           y="56.444447" /><rect
           style="fill:#000000;fill-opacity:1;stroke:none;stroke-width:5.79437"
           id="rect52"
           width="37.179371"
           height="5.7997484"
           x="50.794571"
           y="35.546844" /><rect
           style="fill:#000000;fill-opacity:1;stroke:none;stroke-width:5.79437"
           id="rect53"
           width="10.196332"
           height="5.3320265"
           x="50.794571"
           y="45.83672" /><rect
           style="fill:#000000;fill-opacity:1;stroke:none;stroke-width:5.79437"
           id="rect54"
           width="5.3742986"
           height="5.332026"
           x="82.59964"
           y="45.83672" /><rect
           style="fill:#000000;fill-opacity:1;stroke:none;stroke-width:5.79437"
           id="rect55"
           width="10.196332"
           height="5.332026"
           x="66.884193"
           y="45.83672" /><rect
           style="fill:#000000;fill-opacity:1;stroke:none;stroke-width:5.79437"
           id="rect56"
           width="5.3578119"
           height="5.3578119"
           x="56.091663"
           y="25.003122" /><rect
           style="display:inline;fill:#000000;fill-opacity:1;stroke:none;stroke-width:5.79437"
           id="rect56-2"
           width="5.3578119"
           height="5.3578119"
           x="66.705353"
           y="25.003122" /><rect
           style="display:inline;fill:#000000;fill-opacity:1;stroke:none;stroke-width:5.79437"
           id="rect56-1"
           width="5.3578119"
           height="5.3578119"
           x="77.241829"
           y="25.003122" /><rect
           style="fill:#000000;fill-opacity:1;stroke:none;stroke-width:5.79437"
           id="rect60"
           width="5.144937"
           height="5.144937"
           x="34.611401"
           y="71.280769" /><rect
           style="display:inline;fill:#000000;fill-opacity:1;stroke:none;stroke-width:5.79437"
           id="rect60-2"
           width="5.144937"
           height="5.144937"
           x="34.611404"
           y="82.13192" /><rect
           style="display:inline;fill:#000000;fill-opacity:1;stroke:none;stroke-width:5.79437"
           id="rect60-1"
           width="5.144937"
           height="5.144937"
           x="34.611404"
           y="92.983063" /><rect
           style="fill:#000000;fill-opacity:1;stroke:none;stroke-width:5.79437"
           id="rect61"
           width="6.1515622"
           height="37.6814"
           x="23.547915"
           y="65.616661" /><rect
           style="fill:#000000;fill-opacity:1;stroke:none;stroke-width:5.79437"
           id="rect64"
           width="10.827756"
           height="5.3491731"
           x="9.0036411"
           y="71.280769" /><rect
           style="fill:#000000;fill-opacity:1;stroke:none;stroke-width:5.79437"
           id="rect65"
           width="10.827756"
           height="5.4239578"
           x="9.0036411"
           y="82.086975" /><rect
           style="fill:#000000;fill-opacity:1;stroke:none;stroke-width:5.79437"
           id="rect66"
           width="10.827756"
           height="5.430984"
           x="9.0036411"
           y="93.00103" /><path
           style="fill:#000000;fill-opacity:1;stroke:none;stroke-width:5.79437"
           d="m 50.79457,83.051879 h 4.767927 v 20.246181 h 5.754687 V 77.291403 H 50.79457 Z"
           id="path66" /><rect
           style="fill:#000000;fill-opacity:1;stroke:none;stroke-width:6.52404"
           id="rect67"
           width="5.8869791"
           height="10.318749"
           x="66.674995"
           y="87.823685" /><path
           style="fill:#000000;fill-opacity:1;stroke:none;stroke-width:5.79437"
           d="m 77.324476,103.29806 c 0,0 0,-4.840517 0,-13.003329 0,-8.162811 3.241143,-9.100727 4.960934,-11.052026 1.719792,-1.951302 5.688534,-5.55625 5.688534,-10.384896 0,-4.828646 0,-6.559299 0,-6.559299 0,0 5.75986,-1.510493 5.75986,0.969976 0,2.480469 0,0.628386 0,6.449219 0,5.820833 -4.715171,11.059998 -5.75986,12.104685 -1.044689,1.044688 -4.745956,3.356901 -4.745956,7.441406 0,4.084505 0,14.034264 0,14.034264 z"
           id="path67" /></g></g></g></svg>
